# Blender v2.91.0 OBJ File: ''
# www.blender.org
o Text.012
v 0.054747 0.222913 0.167672
v 0.441747 0.644913 0.167672
v 0.399747 0.644913 0.167672
v 0.341747 0.459913 0.167672
v 0.343747 0.459913 0.167672
v 0.441747 0.265913 0.167672
v 0.185747 0.265913 0.167672
v 0.343747 0.265913 0.167672
v 0.514747 0.265913 0.167672
v 0.514747 0.177913 0.167672
v 0.054747 0.177913 0.167672
v 0.343747 0.177913 0.167672
v 0.343747 -0.046087 0.167672
v 0.441747 0.177913 0.167672
v 0.441747 -0.046087 0.167672
v 0.441747 0.644913 -0.032328
v 0.054747 0.222913 -0.032328
v 0.399747 0.644913 -0.032328
v 0.341747 0.459913 -0.032328
v 0.343747 0.459913 -0.032328
v 0.441747 0.265913 -0.032328
v 0.185747 0.265913 -0.032328
v 0.343747 0.265913 -0.032328
v 0.514747 0.265913 -0.032328
v 0.514747 0.177913 -0.032328
v 0.054747 0.177913 -0.032328
v 0.343747 0.177913 -0.032328
v 0.441747 0.177913 -0.032328
v 0.343747 -0.046087 -0.032328
v 0.441747 -0.046087 -0.032328
v 0.514747 0.177913 0.167672
v 0.514747 0.265913 -0.032328
v 0.514747 0.265913 0.167672
v 0.441747 0.177913 0.167672
v 0.514747 0.177913 -0.032328
v 0.441747 -0.046087 0.167672
v 0.441747 0.177913 -0.032328
v 0.343747 -0.046087 0.167672
v 0.441747 -0.046087 -0.032328
v 0.343747 0.177913 0.167672
v 0.343747 -0.046087 -0.032328
v 0.054747 0.177913 0.167672
v 0.343747 0.177913 -0.032328
v 0.054747 0.222913 0.167672
v 0.054747 0.177913 -0.032328
v 0.399747 0.644913 0.167672
v 0.054747 0.222913 -0.032328
v 0.441747 0.644913 0.167672
v 0.399747 0.644913 -0.032328
v 0.441747 0.265913 0.167672
v 0.441747 0.644913 -0.032328
v 0.441747 0.265913 -0.032328
v 0.343747 0.459913 0.167672
v 0.343747 0.265913 -0.032328
v 0.343747 0.265913 0.167672
v 0.341747 0.459913 0.167672
v 0.343747 0.459913 -0.032328
v 0.185747 0.265913 0.167672
v 0.341747 0.459913 -0.032328
v 0.185747 0.265913 -0.032328
vt 0.500000 0.000000
vt 0.642857 0.000000
vt 0.571429 0.000000
vt 0.928571 0.000000
vt 0.857143 0.000000
vt 0.714286 0.000000
vt 1.000000 0.000000
vt 0.785714 0.000000
vt 0.000000 0.000000
vt 0.071429 0.000000
vt 0.428571 0.000000
vt 0.357143 0.000000
vt 0.285714 0.000000
vt 0.142857 0.000000
vt 0.214286 0.000000
vt 0.642857 0.000000
vt 0.500000 0.000000
vt 0.571429 0.000000
vt 0.928571 0.000000
vt 0.857143 0.000000
vt 0.714286 0.000000
vt 1.000000 0.000000
vt 0.785714 0.000000
vt 0.000000 0.000000
vt 0.071429 0.000000
vt 0.428571 0.000000
vt 0.357143 0.000000
vt 0.142857 0.000000
vt 0.285714 0.000000
vt 0.214286 0.000000
vt 0.090909 1.000000
vt 0.000000 0.000000
vt 0.000000 1.000000
vt 0.181818 1.000000
vt 0.090909 0.000000
vt 0.272727 1.000000
vt 0.181818 0.000000
vt 0.363636 1.000000
vt 0.272727 0.000000
vt 0.454545 1.000000
vt 0.363636 0.000000
vt 0.545455 1.000000
vt 0.454545 0.000000
vt 0.636364 1.000000
vt 0.545455 0.000000
vt 0.727273 1.000000
vt 0.636364 0.000000
vt 0.818182 1.000000
vt 0.727273 0.000000
vt 0.909091 1.000000
vt 0.818182 0.000000
vt 1.000000 1.000000
vt 0.909091 0.000000
vt 0.250000 1.000000
vt 0.000000 0.000000
vt 0.000000 1.000000
vt 0.500000 1.000000
vt 0.250000 0.000000
vt 0.750000 1.000000
vt 0.500000 0.000000
vt 1.000000 1.000000
vt 0.750000 0.000000
vt 1.000000 0.000000
vt 1.000000 0.000000
vn 0.0000 -0.0000 1.0000
vn 0.0000 0.0000 -1.0000
vn 0.7071 -0.7071 0.0000
vn 0.7071 0.7071 0.0000
vn -0.7071 -0.7071 -0.0000
vn -0.9419 0.3360 0.0000
vn -0.4284 0.9036 0.0000
vn -0.7071 0.7071 0.0000
vn 0.4321 -0.9018 0.0000
vn 0.9018 0.4321 0.0000
s off
f 1/1/1 2/2/1 3/3/1
f 1/1/1 4/4/1 2/2/1
f 4/4/1 5/5/1 2/2/1
f 5/5/1 6/6/1 2/2/1
f 1/1/1 7/7/1 4/4/1
f 8/8/1 6/6/1 5/5/1
f 1/1/1 8/8/1 7/7/1
f 1/1/1 6/6/1 8/8/1
f 1/1/1 9/9/1 6/6/1
f 1/1/1 10/10/1 9/9/1
f 11/11/1 10/10/1 1/1/1
f 12/12/1 10/10/1 11/11/1
f 13/13/1 14/14/1 12/12/1
f 14/14/2 10/10/2 12/12/2
f 13/13/1 15/15/1 14/14/1
f 16/16/2 17/17/2 18/18/2
f 19/19/2 17/17/2 16/16/2
f 20/20/2 19/19/2 16/16/2
f 21/21/2 20/20/2 16/16/2
f 22/22/2 17/17/2 19/19/2
f 21/21/2 23/23/2 20/20/2
f 23/23/2 17/17/2 22/22/2
f 21/21/2 17/17/2 23/23/2
f 24/24/2 17/17/2 21/21/2
f 25/25/2 17/17/2 24/24/2
f 25/25/2 26/26/2 17/17/2
f 25/25/2 27/27/2 26/26/2
f 28/28/2 29/29/2 27/27/2
f 25/25/1 28/28/1 27/27/1
f 30/30/2 29/29/2 28/28/2
s 1
f 31/31/3 32/32/4 33/33/4
f 34/34/3 35/35/3 31/31/3
f 36/36/3 37/37/3 34/34/3
f 38/38/5 39/39/3 36/36/3
f 40/40/5 41/41/5 38/38/5
f 42/42/5 43/43/5 40/40/5
f 44/44/6 45/45/5 42/42/5
f 46/46/7 47/47/6 44/44/6
f 48/48/4 49/49/7 46/46/7
f 50/50/4 51/51/4 48/48/4
f 33/52/4 52/53/4 50/50/4
f 53/54/5 54/55/8 55/56/8
f 56/57/9 57/58/5 53/54/5
f 58/59/10 59/60/9 56/57/9
f 55/61/8 60/62/10 58/59/10
f 31/31/3 35/35/3 32/32/4
f 34/34/3 37/37/3 35/35/3
f 36/36/3 39/39/3 37/37/3
f 38/38/5 41/41/5 39/39/3
f 40/40/5 43/43/5 41/41/5
f 42/42/5 45/45/5 43/43/5
f 44/44/6 47/47/6 45/45/5
f 46/46/7 49/49/7 47/47/6
f 48/48/4 51/51/4 49/49/7
f 50/50/4 52/53/4 51/51/4
f 33/52/4 32/63/4 52/53/4
f 53/54/5 57/58/5 54/55/8
f 56/57/9 59/60/9 57/58/5
f 58/59/10 60/62/10 59/60/9
f 55/61/8 54/64/8 60/62/10
